# xmcd
#
# Track frame offsets: 
#        150
#        30202
#        52397
#        70322
#        89092
#        117237
#        139840
#        165422
#        191145
#
# Disc length: 3269 seconds
#
# Revision: 3
# Processed by: cddbd v1.4PL0 Copyright (c) Steve Scherf et al.
# Submitted via: ExactAudioCopy v0.95a4
#
DISCID=810cc309
DTITLE=Steve Westfield Slow BAnd - Stuporstar
DYEAR=1998
DGENRE=Folk/Rock
TTITLE0=Is There Life Before Death ?
TTITLE1=Alone At Last
TTITLE2=All Around You (Live)
TTITLE3=Take Some Time
TTITLE4=The Optimist
TTITLE5=TVing
TTITLE6=Broken Heartland
TTITLE7=Stuporstar
TTITLE8=Hopeless, But Hopeful
EXTD=
EXTT0=
EXTT1=
EXTT2=
EXTT3=
EXTT4=
EXTT5=
EXTT6=
EXTT7=
EXTT8=
PLAYORDER=
